<svg xmlns="http://www.w3.org/2000/svg" viewBox="0 0 48 48" fill="none" aria-hidden="true">
  <circle cx="24" cy="24" r="22" fill="#2BAD13"/>
  <path
    d="M14.5 17.5c0-2.4 4.2-4.3 9.5-4.3s9.5 1.9 9.5 4.3c0 1.2-.8 2.3-2.1 3.1l1.2 3.8-4.2-2.1c-.8.2-1.6.3-2.4.3-5.3 0-9.5-1.9-9.5-4.3Z"
    fill="#fff"
  />
  <path
    d="M12.5 28.5c0-2 3.5-3.6 7.8-3.6.9 0 1.7.1 2.5.3l3.8-2-1 3.2c1.6 1 2.6 2.4 2.6 4.1 0 2.4-4 4.3-8.9 4.3-1.1 0-2.1-.1-3-.3l-3.8 2 1-3.1c-1.4-1-2.3-2.3-2.3-3.9Z"
    fill="#fff"
    opacity="0.95"
  />
</svg>
